<svg display="inline-block" xmlns="http://www.w3.org/2000/svg">
    <symbol id="facebook" viewBox="0 0 320 512">
        <path
            d="M279.14 288l14.22-92.66h-88.91v-60.13c0-25.35 12.42-50.06 52.24-50.06h40.42V6.26S260.43 
            0 225.36 0c-73.22 0-121.08 44.38-121.08 124.72v70.62H22.89V288h81.39v224h100.17V288z">
        </path>
    </symbol>
    <symbol id="telegram" viewBox="0 0 448 512">
        <path 
            d="M446.7 98.6l-67.6 318.8c-5.1 22.5-18.4 28.1-37.3 17.5l-103-75.9-49.7 
            47.8c-5.5 5.5-10.1 10.1-20.7 10.1l7.4-104.9 190.9-172.5c8.3-7.4-1.8-11.5-12.9-4.1L117.8 
            284 16.2 252.2c-22.1-6.9-22.5-22.1 4.6-32.7L418.2 66.4c18.4-6.9 34.5 4.1 28.5 32.2z">
        </path>
    </symbol>
    <symbol id="instagram" viewBox="0 0 448 512">
        <path 
            d="M224.1 141c-63.6 0-114.9 51.3-114.9 114.9s51.3 114.9 114.9 114.9S339 319.5 339 255.9 
            287.7 141 224.1 141zm0 189.6c-41.1 0-74.7-33.5-74.7-74.7s33.5-74.7 74.7-74.7 74.7 33.5 74.7 
            74.7-33.6 74.7-74.7 74.7zm146.4-194.3c0 14.9-12 26.8-26.8 26.8-14.9 0-26.8-12-26.8-26.8s12-26.8 
            26.8-26.8 26.8 12 26.8 26.8zm76.1 27.2c-1.7-35.9-9.9-67.7-36.2-93.9-26.2-26.2-58-34.4-93.9-36.2-37-2.1-147.9-2.1-184.9 
            0-35.8 1.7-67.6 9.9-93.9 36.1s-34.4 58-36.2 93.9c-2.1 37-2.1 147.9 0 184.9 1.7 35.9 9.9 67.7 
            36.2 93.9s58 34.4 93.9 36.2c37 2.1 147.9 2.1 184.9 0 35.9-1.7 67.7-9.9 93.9-36.2 26.2-26.2 
            34.4-58 36.2-93.9 2.1-37 2.1-147.8 0-184.8zM398.8 388c-7.8 19.6-22.9 34.7-42.6 42.6-29.5 11.7-99.5 
            9-132.1 9s-102.7 2.6-132.1-9c-19.6-7.8-34.7-22.9-42.6-42.6-11.7-29.5-9-99.5-9-132.1s-2.6-102.7 
            9-132.1c7.8-19.6 22.9-34.7 42.6-42.6 29.5-11.7 99.5-9 132.1-9s102.7-2.6 132.1 9c19.6 7.8 34.7 22.9 
            42.6 42.6 11.7 29.5 9 99.5 9 132.1s2.7 102.7-9 132.1z">
        </path>
    </symbol>
    <symbol id="twitter" viewBox="0 0 512 512">
        <path 
            d="M459.37 151.716c.325 4.548.325 9.097.325 13.645 0 138.72-105.583 298.558-298.558 298.558-59.452 
            0-114.68-17.219-161.137-47.106 8.447.974 16.568 1.299 25.34 1.299 49.055 0 94.213-16.568 
            130.274-44.832-46.132-.975-84.792-31.188-98.112-72.772 6.498.974 12.995 1.624 19.818 1.624 
            9.421 0 18.843-1.3 27.614-3.573-48.081-9.747-84.143-51.98-84.143-102.985v-1.299c13.969 7.797 
            30.214 12.67 47.431 13.319-28.264-18.843-46.781-51.005-46.781-87.391 0-19.492 5.197-37.36 14.294-52.954 
            51.655 63.675 129.3 105.258 216.365 109.807-1.624-7.797-2.599-15.918-2.599-24.04 0-57.828 46.782-104.934 
            104.934-104.934 30.213 0 57.502 12.67 76.67 33.137 23.715-4.548 46.456-13.32 66.599-25.34-7.798 24.366-24.366 
            44.833-46.132 57.827 21.117-2.273 41.584-8.122 60.426-16.243-14.292 20.791-32.161 39.308-52.628 54.253z">
    </path>
    </symbol>
    <symbol id="heart" viewBox="0 0 512 512">
        <path
            d="M462.3 62.6C407.5 15.9 326 24.3 275.7 76.2L256 96.5l-19.7-20.3C186.1 24.3 104.5 15.9 49.7 62.6c-62.8 53.6-66.1 
            149.8-9.9 207.9l193.5 199.8c12.5 12.9 32.8 12.9 45.3 0l193.5-199.8c56.3-58.1 53-154.3-9.8-207.9z">
         </path>
    </symbol>
    <symbol id="logo">
        <text kerning="auto" fill="rgb(0, 0, 0)" font-size="17px" x="0px" y="27.031px"><tspan font-size="17px" font-weight="bold" fill="#282828">SHOPPING&#32;</tspan></text>
        <path fill-rule="evenodd"  fill="rgb(255, 222, 0)"
        d="M105.000,21.000 L100.000,26.000 L100.000,21.000 L100.000,-0.000 L145.000,-0.000 L145.000,21.000 L105.000,21.000 Z"/>
        <text kerning="auto" fill="rgb(0, 0, 0)" font-size="10px" x="107px" y="14.937px"><tspan font-size="10px" font-weight="bold" fill="#282828">UI&#32;KIT</tspan></text>
    </symbol>
    <symbol id="search" viewBox="0 0 512 512">
        <path
            d="M505 442.7L405.3 343c-4.5-4.5-10.6-7-17-7H372c27.6-35.3 44-79.7 44-128C416 
            93.1 322.9 0 208 0S0 93.1 0 208s93.1 208 208 208c48.3 0 92.7-16.4 128-44v16.3c0 
            6.4 2.5 12.5 7 17l99.7 99.7c9.4 9.4 24.6 9.4 33.9 0l28.3-28.3c9.4-9.4 9.4-24.6.1-34zM208 
            336c-70.7 0-128-57.2-128-128 0-70.7 57.2-128 128-128 70.7 0 128 57.2 128 128 0 70.7-57.2 
            128-128 128z">
        </path>
    </symbol>
    <symbol id="flying" viewBox="0 0 640 512">
         <path 
            d="M624 448H16c-8.84 0-16 7.16-16 16v32c0 8.84 7.16 16 16 16h608c8.84 0 16-7.16 16-16v-32c0-8.84-7.16-16-16-16zM80.55 
            341.27c6.28 6.84 15.1 10.72 24.33 10.71l130.54-.18a65.62 65.62 0 0 0 29.64-7.12l290.96-147.65c26.74-13.57 50.71-32.94 
            67.02-58.31 18.31-28.48 20.3-49.09 13.07-63.65-7.21-14.57-24.74-25.27-58.25-27.45-29.85-1.94-59.54 5.92-86.28 19.48l-98.51 
            49.99-218.7-82.06a17.799 17.799 0 0 0-18-1.11L90.62 67.29c-10.67 5.41-13.25 19.65-5.17 28.53l156.22 98.1-103.21 52.38-72.35-36.47a17.804 
            17.804 0 0 0-16.07.02L9.91 230.22c-10.44 5.3-13.19 19.12-5.57 28.08l76.21 82.97z">
        </path>
    </symbol>
    <symbol id="wallet" viewBox="0 0 512 512">
        <path
            d="M461.2 128H80c-8.84 0-16-7.16-16-16s7.16-16 16-16h384c8.84 0 16-7.16 16-16 0-26.51-21.49-48-48-48H64C28.65 32 0 60.65 0 
            96v320c0 35.35 28.65 64 64 64h397.2c28.02 0 50.8-21.53 50.8-48V176c0-26.47-22.78-48-50.8-48zM416 336c-17.67 0-32-14.33-32-32s14.33-32 
            32-32 32 14.33 32 32-14.33 32-32 32z">
        </path>
    </symbol>
    <symbol id="truck" viewBox="0 0 640 512">
        <path
            d="M624 352h-16V243.9c0-12.7-5.1-24.9-14.1-33.9L494 110.1c-9-9-21.2-14.1-33.9-14.1H416V48c0-26.5-21.5-48-48-48H48C21.5 0 0 21.5 0 
            48v320c0 26.5 21.5 48 48 48h16c0 53 43 96 96 96s96-43 96-96h128c0 53 43 96 96 96s96-43 96-96h48c8.8 0 16-7.2 16-16v-32c0-8.8-7.2-16-16-16zM160 
            464c-26.5 0-48-21.5-48-48s21.5-48 48-48 48 21.5 48 48-21.5 48-48 48zm320 0c-26.5 0-48-21.5-48-48s21.5-48 48-48 48 21.5 48 48-21.5 48-48 
            48zm80-208H416V144h44.1l99.9 99.9V256z">
        </path>
    </symbol>
    <symbol id="heart" viewBox="0 0 168.1 168.1">
        <path 
            d="M142.119,19.245C123.68,9.39,99.36,12.383,84.077,26.134C68.72,12.394,44.361,9.433,25.984,19.245
            C9.968,27.737,0,44,0,61.658c0,5.056,0.84,10.08,2.326,14.408c7.839,33.931,58.163,78.583,81.751,78.583
            c23.537,0,73.823-44.656,81.527-78.008c1.652-4.908,2.495-9.92,2.495-14.988C168.1,44,158.141,27.731,142.119,19.245z
            M154.157,73.396c-7.294,31.578-54.816,69.347-70.08,69.347c-16.987,0-63.271-39.567-70.303-69.921
            c-1.256-3.661-1.86-7.409-1.86-11.157c0-13.241,7.526-25.478,19.638-31.902c5.64-3.021,12.056-4.58,18.542-4.58
            c11.416,0,22.162,4.843,29.492,13.308l4.543,5.199l4.475-5.199c11.415-13.247,32.384-17.056,47.97-8.728
            c12.112,6.424,19.639,18.661,19.639,31.902C156.188,65.406,155.58,69.155,154.157,73.396z M149.506,61.658
            c0,3.114-0.523,6.244-1.564,9.324c-0.425,1.253-1.56,1.993-2.824,1.993c-0.317,0-0.63-0.022-0.952-0.131
            c-1.564-0.526-2.386-2.222-1.86-3.776c0.837-2.473,1.286-4.98,1.286-7.41c0-8.891-5.049-17.083-13.172-21.362
            c-3.852-2.057-8.021-3.114-12.397-3.114c-1.665,0-2.96-1.308-2.96-2.96c0-1.653,1.295-2.955,2.96-2.955
            c5.341,0,10.45,1.253,15.188,3.776C143.257,40.366,149.506,50.556,149.506,61.658z"/>
        </path>
    </symbol>
</svg>

